<svg xmlns="http://www.w3.org/2000/svg" xmlns:xlink="http://www.w3.org/1999/xlink" id="body_1" width="81" height="61">

<g transform="matrix(1.7235878 0 0 1.7235878 -0 0.6672801)">
    <path transform="matrix(1 0 0 1 -31.57 -0)"  d="M49.814 26.739L54.239 34.617L54.639 34.617L70.453 0L49.814 26.739zM60.321 0.72L49 24.812L48.71 24.812L45.641 19.732zM51.227 2.47L44.519 16.682L44.341 16.682L42.47 13.763zM40.5 11.564C 40.5 11.564 38.185 31.96 38.69 32.54C 39.28978 33.387466 40.293495 33.85394 41.328 33.766003L41.328 33.766003L42.675 33.766003L42.675 34.617004L31.57 34.617004L31.57 33.817005L32.393 33.817005C 33.73814 33.94603 35.05961 33.39901 35.920002 32.357006C 36.332 31.768005 39.02 8.546005 39.02 8.546005zM69.9 7.7C 69.9 7.7 73.165 32.025 73.642 32.568C 74.62781 33.41587 75.910545 33.836494 77.207 33.737L77.207 33.737L78.564 33.737L78.564 34.616L62.407 34.616L62.407 33.783L63.782 33.783C 65.24985 33.856274 66.67037 33.25306 67.637 32.146C 68.049 31.546 65.766 16.437 65.766 16.437z" stroke="none" fill="#000000" fill-rule="nonzero" />
</g>
</svg>